# xmcd
#
# Track frame offsets:
#	150
#	11185
#	20130
#	30045
#	42492
#	53212
#	67635
#	78062
#	87445
#	99052
#	110465
#	123565
#	134030
#	153502
#	166452
#	181737
#	191227
#	202137
#	211520
#	224052
#	233462
#	247015
#	256955
#	267267
#	281617
#	291752
#	302560
#	311245
#
# Disc length: 4249 seconds
#
# Revision: 1
# Processed by: cddbd v1.5.1PL2 Copyright (c) Steve Scherf et al.
# Submitted via: audiograbber 1.83.01
#
DISCID=9010971c
DTITLE=The Blackwood Brothers - Rock - A - MY - SOUL 5
DYEAR=1900
DGENRE=
TTITLE0=Walking' And Takin' With My Lord
TTITLE1=For My Good Fortune
TTITLE2=I Can't Stand Up Alone
TTITLE3=Beyond God's Horizon
TTITLE4=He Will See You Through
TTITLE5=Land Call Heaven
TTITLE6=Behind Your Tears
TTITLE7=Each Step I Take
TTITLE8=My All I Give
TTITLE9=Walking In The Light
TTITLE10=Dreams Of Tomorrow
TTITLE11=Mt Lord Goes With Me
TTITLE12=Paradise Island
TTITLE13=Do You Know My Jesus?
TTITLE14=Do You Go To Church?
TTITLE15=Pay As You Go
TTITLE16=I'm Thankful
TTITLE17=Not My Will
TTITLE18=Hide Me, Rock Of Ages
TTITLE19=I get Happy
TTITLE20=I Wouldn't Trade
TTITLE21=How Great Thou Art
TTITLE22=Never
TTITLE23=Then I Met The Master
TTITLE24=Dear Lord, Remember Me
TTITLE25=The Devil Can't Harm A Praying Man
TTITLE26=He's All That I Need
TTITLE27=What A Morning
EXTD=
EXTT0=
EXTT1=
EXTT2=
EXTT3=
EXTT4=
EXTT5=
EXTT6=
EXTT7=
EXTT8=
EXTT9=
EXTT10=
EXTT11=
EXTT12=
EXTT13=
EXTT14=
EXTT15=
EXTT16=
EXTT17=
EXTT18=
EXTT19=
EXTT20=
EXTT21=
EXTT22=
EXTT23=
EXTT24=
EXTT25=
EXTT26=
EXTT27=
PLAYORDER=
